<?xml version="1.0" encoding="UTF-8" standalone="no"?>
<svg width="28px" height="77px" viewBox="0 0 28 77" version="1.1" xmlns="http://www.w3.org/2000/svg" xmlns:xlink="http://www.w3.org/1999/xlink">
    <!-- Generator: Sketch 48.2 (47327) - http://www.bohemiancoding.com/sketch -->
    <title>Artboard</title>
    <desc>Created with Sketch.</desc>
    <defs></defs>
    <g id="典型页面" stroke="none" stroke-width="1" fill="none" fill-rule="evenodd">
        <g id="Artboard" opacity="0.65">
            <g id="Group" transform="translate(7.000000, 32.000000)">
                <rect id="Rectangle-26" x="0" y="0" width="14" height="14"></rect>
                <path d="M2.734375,8.421875 L2.734375,12.140625 L11.265625,12.140625 L11.265625,8.421875 L2.734375,8.421875 Z M1.75,7.4375 L12.25,7.4375 L12.25,12.25 C12.25,12.7332492 11.8582492,13.125 11.375,13.125 L2.625,13.125 C2.14175084,13.125 1.75,12.7332492 1.75,12.25 L1.75,7.4375 Z" id="Combined-Shape" fill="#000000" fill-rule="nonzero"></path>
                <rect id="Rectangle-2" fill="#FFFFFF" x="5.44140625" y="7" width="3.28125" height="2.26953125"></rect>
                <path d="M1.83203125,4.15625 L1.83203125,7.4375 L12.1132812,7.4375 L12.1132812,4.15625 L1.83203125,4.15625 Z M5.50976562,8.421875 L1.72265625,8.421875 C1.23940709,8.421875 0.84765625,8.03012416 0.84765625,7.546875 L0.84765625,4.046875 C0.84765625,3.56362584 1.23940709,3.171875 1.72265625,3.171875 L3.9375,3.171875 L3.9375,1.75 C3.9375,1.26675084 4.32925084,0.875 4.8125,0.875 L9.1875,0.875 C9.67074916,0.875 10.0625,1.26675084 10.0625,1.75 L10.0625,3.171875 L12.2226562,3.171875 C12.7059054,3.171875 13.0976562,3.56362584 13.0976562,4.046875 L13.0976562,7.546875 C13.0976562,8.03012416 12.7059054,8.421875 12.2226562,8.421875 L8.72265625,8.421875 L8.72265625,7 L5.50976562,7 L5.50976562,8.421875 Z M4.921875,1.859375 L4.921875,3.171875 L9.078125,3.171875 L9.078125,1.859375 L4.921875,1.859375 Z" id="Combined-Shape" fill="#000000" fill-rule="nonzero"></path>
                <path d="M5.796875,7.1640625 L5.796875,8.6953125 L8.203125,8.6953125 L8.203125,7.1640625 L5.796875,7.1640625 Z M5.6875,6.1796875 L8.3125,6.1796875 C8.79574916,6.1796875 9.1875,6.57143834 9.1875,7.0546875 L9.1875,8.8046875 C9.1875,9.28793666 8.79574916,9.6796875 8.3125,9.6796875 L5.6875,9.6796875 C5.20425084,9.6796875 4.8125,9.28793666 4.8125,8.8046875 L4.8125,7.0546875 C4.8125,6.57143834 5.20425084,6.1796875 5.6875,6.1796875 Z" id="Rectangle-25" fill="#000000" fill-rule="nonzero"></path>
            </g>
        </g>
        <g id="个人中心" transform="translate(-356.000000, -156.000000)">
            <rect id="Rectangle-122-Copy-4" fill="#FFFFFF" x="336" y="141" width="362" height="726" rx="2"></rect>
            <g id="Group-8" transform="translate(304.000000, 156.000000)" opacity="0.65">
                <g id="Group-4">
                    <g id="Group-36" transform="translate(14.000000, 0.000000)">
                        <g id="Group-32" transform="translate(38.000000, 44.000000)">
                            <rect id="Rectangle-11-Copy" x="0" y="0" width="14" height="14"></rect>
                            <g id="location" transform="translate(1.763672, 0.013672)" fill="#000000" fill-rule="nonzero">
                                <path d="M5.23632812,2.55664062 C3.75839844,2.55664062 2.55664062,3.75839844 2.55664062,5.23632812 C2.55664062,6.71425781 3.75839844,7.91601562 5.23632812,7.91601562 C6.71425781,7.91601562 7.91601562,6.71425781 7.91601562,5.23632812 C7.91601562,3.75839844 6.71425781,2.55664062 5.23632812,2.55664062 Z M5.23632812,6.93164062 C4.30117188,6.93164062 3.54101562,6.17148438 3.54101562,5.23632812 C3.54101562,4.30117188 4.30117188,3.54101562 5.23632812,3.54101562 C6.17148438,3.54101562 6.93164062,4.30117188 6.93164062,5.23632812 C6.93164062,6.17148438 6.17148438,6.93164062 5.23632812,6.93164062 Z" id="Shape"></path>
                                <path d="M10.0611328,3.19785156 C9.79726562,2.57441406 9.41992188,2.01386719 8.93867187,1.53398437 C8.45878906,1.05273438 7.89824219,0.675390625 7.27480469,0.411523438 C6.62949219,0.138085937 5.94316406,0 5.23632812,0 C4.52949219,0 3.84316406,0.138085937 3.19785156,0.411523438 C2.57441406,0.675390625 2.01386719,1.05273438 1.53398437,1.53398437 C1.05410156,2.01523437 0.675390625,2.57441406 0.411523437,3.19785156 C0.138085937,3.84316406 0,4.52949219 0,5.23632812 C0,6.59667969 0.827148438,8.45878906 2.45683594,10.7734375 C3.64082031,12.4537109 4.80566406,13.7388672 4.86171875,13.8003906 C4.95742188,13.9056641 5.09277344,13.9658203 5.23496094,13.9658203 L5.23769531,13.9658203 C5.38125,13.9644531 5.51796875,13.9029297 5.61230469,13.7962891 C5.66152344,13.7402344 6.82910156,12.4195313 8.01582031,10.71875 C9.646875,8.38222656 10.4726562,6.53789062 10.4726562,5.23632812 C10.4726562,4.52949219 10.3345703,3.84316406 10.0611328,3.19785156 Z M8.80058594,7.52226563 C8.41914063,8.3015625 7.8859375,9.18476563 7.21464844,10.1472656 C6.44492188,11.2505859 5.66835938,12.2089844 5.23222656,12.7285156 C4.79746094,12.2212891 4.02636719,11.2902344 3.26210938,10.2060547 C1.771875,8.09101563 0.984375,6.37382812 0.984375,5.23632812 C0.984375,4.10019531 1.42597656,3.03242188 2.22988281,2.22988281 C3.03378906,1.42734375 4.10019531,0.984375 5.23632812,0.984375 C6.37246094,0.984375 7.44023438,1.42597656 8.24277344,2.22988281 C9.0453125,3.03378906 9.48828125,4.10019531 9.48828125,5.23632812 C9.48828125,5.81875 9.25722656,6.58847656 8.80058594,7.52226563 Z" id="Shape"></path>
                            </g>
                        </g>
                        <g id="Group-33" transform="translate(38.000000, 22.000000)">
                            <rect id="Rectangle-11" x="0" y="0" width="14" height="14"></rect>
                            <g id="orgnization" transform="translate(0.875000, 1.093750)" fill="#000000" fill-rule="nonzero">
                                <path d="M11.375,8.3125 L10.9375,8.3125 L10.9375,6.20703125 C10.9375,5.72304688 10.4630859,5.25 9.98046875,5.25 L6.6171875,5.25 L6.6171875,3.5 L7,3.5 C7.48261719,3.5 7.875,3.10761719 7.875,2.625 L7.875,0.875 C7.875,0.392382813 7.48261719,0 7,0 L5.25,0 C4.76738281,0 4.375,0.392382813 4.375,0.875 L4.375,2.625 C4.375,3.10761719 4.76738281,3.5 5.25,3.5 L5.6328125,3.5 L5.6328125,5.25 L2.2421875,5.25 C1.75957031,5.25 1.3125,5.69707031 1.3125,6.1796875 L1.3125,8.3125 L0.875,8.3125 C0.392382813,8.3125 0,8.70488281 0,9.1875 L0,10.9375 C0,11.4201172 0.392382813,11.8125 0.875,11.8125 L2.625,11.8125 C3.10761719,11.8125 3.5,11.4201172 3.5,10.9375 L3.5,9.1875 C3.5,8.70488281 3.10761719,8.3125 2.625,8.3125 L2.2421875,8.3125 L2.2421875,6.234375 L5.6328125,6.234375 L5.6328125,8.3125 L5.25,8.3125 C4.76738281,8.3125 4.375,8.70488281 4.375,9.1875 L4.375,10.9375 C4.375,11.4201172 4.76738281,11.8125 5.25,11.8125 L7,11.8125 C7.48261719,11.8125 7.875,11.4201172 7.875,10.9375 L7.875,9.1875 C7.875,8.70488281 7.48261719,8.3125 7,8.3125 L6.6171875,8.3125 L6.6171875,6.234375 L10.0078125,6.234375 L10.0078125,8.3125 L9.625,8.3125 C9.14238281,8.3125 8.75,8.70488281 8.75,9.1875 L8.75,10.9375 C8.75,11.4201172 9.14238281,11.8125 9.625,11.8125 L11.375,11.8125 C11.8576172,11.8125 12.25,11.4201172 12.25,10.9375 L12.25,9.1875 C12.25,8.70488281 11.8576172,8.3125 11.375,8.3125 Z M2.625,9.1875 L2.625,10.9375 L0.875,10.9375 L0.875,9.1875 L2.625,9.1875 Z M7,9.1875 L7,10.9375 L5.25,10.9375 L5.25,9.1875 L7,9.1875 Z M5.25,2.625 L5.25,0.875 L7,0.875 L7,2.625 L5.25,2.625 Z M11.375,10.9375 L9.625,10.9375 L9.625,9.1875 L11.375,9.1875 L11.375,10.9375 Z" id="Shape"></path>
                            </g>
                        </g>
                        <g id="Group" transform="translate(38.000000, 0.000000)">
                            <rect id="Rectangle-26" x="0" y="0" width="14" height="14"></rect>
                            <path d="M2.734375,8.421875 L2.734375,12.140625 L11.265625,12.140625 L11.265625,8.421875 L2.734375,8.421875 Z M1.75,7.4375 L12.25,7.4375 L12.25,12.25 C12.25,12.7332492 11.8582492,13.125 11.375,13.125 L2.625,13.125 C2.14175084,13.125 1.75,12.7332492 1.75,12.25 L1.75,7.4375 Z" id="Combined-Shape" fill="#000000" fill-rule="nonzero"></path>
                            <rect id="Rectangle-2" fill="#FFFFFF" x="5.44140625" y="7" width="3.28125" height="2.26953125"></rect>
                            <path d="M1.83203125,4.15625 L1.83203125,7.4375 L12.1132812,7.4375 L12.1132812,4.15625 L1.83203125,4.15625 Z M5.50976562,8.421875 L1.72265625,8.421875 C1.23940709,8.421875 0.84765625,8.03012416 0.84765625,7.546875 L0.84765625,4.046875 C0.84765625,3.56362584 1.23940709,3.171875 1.72265625,3.171875 L3.9375,3.171875 L3.9375,1.75 C3.9375,1.26675084 4.32925084,0.875 4.8125,0.875 L9.1875,0.875 C9.67074916,0.875 10.0625,1.26675084 10.0625,1.75 L10.0625,3.171875 L12.2226562,3.171875 C12.7059054,3.171875 13.0976562,3.56362584 13.0976562,4.046875 L13.0976562,7.546875 C13.0976562,8.03012416 12.7059054,8.421875 12.2226562,8.421875 L8.72265625,8.421875 L8.72265625,7 L5.50976562,7 L5.50976562,8.421875 Z M4.921875,1.859375 L4.921875,3.171875 L9.078125,3.171875 L9.078125,1.859375 L4.921875,1.859375 Z" id="Combined-Shape" fill="#000000" fill-rule="nonzero"></path>
                            <path d="M5.796875,7.1640625 L5.796875,8.6953125 L8.203125,8.6953125 L8.203125,7.1640625 L5.796875,7.1640625 Z M5.6875,6.1796875 L8.3125,6.1796875 C8.79574916,6.1796875 9.1875,6.57143834 9.1875,7.0546875 L9.1875,8.8046875 C9.1875,9.28793666 8.79574916,9.6796875 8.3125,9.6796875 L5.6875,9.6796875 C5.20425084,9.6796875 4.8125,9.28793666 4.8125,8.8046875 L4.8125,7.0546875 C4.8125,6.57143834 5.20425084,6.1796875 5.6875,6.1796875 Z" id="Rectangle-25" fill="#000000" fill-rule="nonzero"></path>
                        </g>
                    </g>
                </g>
            </g>
        </g>
    </g>
</svg>